<svg width="976" height="136" viewBox="0 0 976 136" xmlns="http://www.w3.org/2000/svg"><g fill-rule="nonzero" fill="none"><path d="M894 26.16c-21.317-.094-38.683 17.093-38.81 38.41v8.64c-.522 12.551-10.634 22.577-23.19 22.99-10 0-13.87-3.68-17.77-11.55 14.037-6.93 21.088-22.925 16.732-37.961-4.355-15.037-18.863-24.788-34.43-23.142-15.568 1.646-27.717 14.215-28.832 29.83C766.585 68.99 776.824 83.158 792 87c5.39 19 19.66 30.09 40 30.09 23.58 0 44.28-17.12 44.28-42.63v-3.93c12.42 7.52 20.25 9.32 31.07 9.32 35 0 59-30 67.77-53.44L894 26.16zM787.25 55.64c0-7.042 5.708-12.75 12.75-12.75s12.75 5.708 12.75 12.75-5.708 12.75-12.75 12.75-12.75-5.708-12.75-12.75z" fill="#57BD84"/><path d="M24.21 76.53C25.37 88.42 36.09 92.18 47 92.18c10.15 0 18.7-4.06 18.7-12.61 0-6.52-4.2-9.56-15.51-11.45l-18.3-3.33c-16.24-2.9-28.7-10.87-28.7-29.28 0-19.57 17.68-32.32 41.31-32.32 26.67 0 41.89 11.74 43.92 31.74H64.79c-.87-9-8.7-13.77-20-13.77-10.29 0-17.11 5.07-17.11 12.47 0 7.24 5.08 9.13 14.93 11l19.72 3.77c18 3.19 28 12.47 28 29.42 0 20-18.55 32.33-42.47 32.33C21.31 110.16 2.17 99.29 0 76.53h24.21zm100 57.69H100v-100h23.91v11.15c3.63-7.4 12.32-12.9 22.76-12.9 20 0 32.47 16.23 32.47 38.84 0 22.61-12.47 38.85-32.47 38.85-10.29 0-18.7-5.37-22.47-12.76l.01 36.82zm-.43-61.31c0 12.32 5.65 19.85 15.36 19.85 10.15 0 15.66-8 15.66-21.45s-5.51-21.6-15.66-21.6c-9.71 0-15.36 7.54-15.36 20v3.2zM241 56.09a46.87 46.87 0 00-7.83-.58c-11 0-19.42 6.53-19.42 20.44v32.47h-24.17V34.21h23.92V50c3.77-11 11.74-17 22.17-17a14.61 14.61 0 015.37.72L241 56.09zm23.8-29.86c-7.68 0-13.91-5.5-13.91-13.19 0-7.53 6.23-13 13.91-13s13.77 5.51 13.77 13c0 7.69-6.23 13.19-13.77 13.19zm-12.17 82.19V34.21h24.2v74.21h-24.2zm62.03-62.76c3.63-7.54 11.74-13.19 22.9-13.19 17.11 0 27.54 10.43 27.54 28.41v47.54h-24.35V66.67c0-10.29-4.06-15.5-12.32-15.5-7.53 0-13.43 4.92-13.43 17.53v39.72h-24.2V34.21h23.91l-.05 11.45zM430 92.91c-3.63 7.25-11.75 13-22.47 13-20.29 0-32.76-15.36-32.76-36.81 0-21.45 12.47-36.67 32.76-36.67 10.72 0 19.13 5.79 22.76 12.9V34.21h23.91v65.37c0 24.78-16.09 36.38-39.86 36.38-21.89 0-35.65-9.28-38.26-24.35H400c1.74 5.65 6.81 8 14.21 8 9.42 0 15.8-4.79 15.8-16.38L430 92.91zm.57-25.22c0-11.16-6.37-18.12-15.79-18.12-10 0-15.66 7.39-15.66 19.57s5.65 19.71 15.66 19.71c9.42 0 15.79-7 15.79-18.41v-2.75zm37.58 40.73V1.74h24.21v106.68h-24.21zm74.21 1.74c-23.33 0-39.57-14.64-39.57-38.85S519 32.47 542.36 32.47s39.43 14.64 39.43 38.84c0 24.2-16.24 38.85-39.43 38.85zm0-17.4c10 0 15.08-8 15.08-21.45s-5.08-21.45-15.08-21.45-15.22 8-15.22 21.45 5.22 21.45 15.22 21.45zm95.81 4.79c-3.77 8.26-12.47 12.61-23.77 12.61-15.8 0-25.8-8.56-25.8-21.89 0-15.51 12.46-21.16 27.54-22.76l20.87-2v-3c0-6.81-4.06-10.73-11.16-10.73-6.67 0-10.44 3.92-10.87 9.43h-23.19c1.59-16.67 14.49-26.67 34.93-26.67 22.17 0 33.91 10.29 33.91 30.73v23.99a137.56 137.56 0 001.31 21.16h-23.05a98.87 98.87 0 01-.72-10.87zM637 80.3v-3.63l-13.34 1.6c-6.52.72-11.16 2.46-11.16 8.41 0 4.92 3.34 8 9.28 8 7.98-.03 15.22-4.96 15.22-14.38zm87 17.1c-3.77 7.39-12.46 12.76-22.75 12.76-20 0-32.47-16.24-32.47-38.85 0-22.61 12.46-38.84 32.47-38.84 10.43 0 18.84 5.36 22.46 12.75V1.74h24.21v106.68H724V97.4zm.15-27.68c0-12.47-5.66-20-15.37-20-10.14 0-15.65 8.27-15.65 21.6 0 13.33 5.51 21.45 15.65 21.45 9.71 0 15.37-7.53 15.37-19.85v-3.2z" fill="#FFF"/></g></svg>